<svg width="20" height="20" viewBox="0 0 20 20" fill="none" xmlns="http://www.w3.org/2000/svg">
<path d="M16.875 10.6249C16.4874 10.6255 16.1095 10.7459 15.793 10.9697C15.4766 11.1935 15.2371 11.5097 15.1074 11.8749H13.5754L12.468 8.55229C12.4257 8.42569 12.3441 8.31593 12.235 8.23908C12.1259 8.16223 11.995 8.12233 11.8616 8.12521C11.7282 8.12809 11.5992 8.17361 11.4935 8.2551C11.3878 8.33658 11.3109 8.44976 11.2742 8.57807L9.53555 14.6624L7.49141 2.39682C7.4677 2.2552 7.39596 2.12607 7.28824 2.03112C7.18052 1.93618 7.0434 1.88123 6.89992 1.8755C6.75645 1.86977 6.61538 1.91361 6.50043 1.99966C6.38549 2.08571 6.30367 2.20871 6.26875 2.34799L3.88711 11.8749H1.875C1.70924 11.8749 1.55027 11.9408 1.43306 12.058C1.31585 12.1752 1.25 12.3342 1.25 12.4999C1.25 12.6657 1.31585 12.8247 1.43306 12.9419C1.55027 13.0591 1.70924 13.1249 1.875 13.1249H4.375C4.51437 13.1249 4.64974 13.0783 4.75958 12.9925C4.86943 12.9068 4.94745 12.7867 4.98125 12.6515L6.75234 5.56674L8.75859 17.6027C8.78171 17.7428 8.85188 17.8709 8.95754 17.9658C9.06319 18.0608 9.19803 18.1169 9.33984 18.1249C9.35156 18.1249 9.36328 18.1249 9.37539 18.1249C9.51109 18.1248 9.64307 18.0806 9.75138 17.9988C9.8597 17.9171 9.93846 17.8023 9.97578 17.6718L11.9211 10.864L12.532 12.6976C12.5735 12.822 12.6531 12.9303 12.7595 13.007C12.866 13.0837 12.9938 13.125 13.125 13.1249H15.1074C15.222 13.449 15.4235 13.7354 15.6898 13.9527C15.9562 14.17 16.2771 14.31 16.6176 14.3572C16.9581 14.4044 17.3051 14.3571 17.6205 14.2205C17.9359 14.0838 18.2077 13.8631 18.4062 13.5824C18.6046 13.3017 18.7221 12.9719 18.7457 12.6289C18.7694 12.286 18.6983 11.9431 18.5403 11.6379C18.3822 11.3326 18.1433 11.0767 17.8496 10.898C17.5559 10.7194 17.2188 10.6249 16.875 10.6249Z" fill="white"/>
</svg>
