<svg width="12" height="7" viewBox="0 0 12 7" fill="none" xmlns="http://www.w3.org/2000/svg">
<path fill-rule="evenodd" clip-rule="evenodd" d="M7.875 0.875C7.875 0.667893 8.04289 0.5 8.25 0.5H10.875C11.0821 0.5 11.25 0.667893 11.25 0.875V3.5C11.25 3.70711 11.0821 3.875 10.875 3.875C10.6679 3.875 10.5 3.70711 10.5 3.5V1.78033L7.54559 4.73474C7.54558 4.73475 7.54557 4.73476 7.54556 4.73477C7.44109 4.83925 7.31707 4.92213 7.18058 4.97868C7.04407 5.03523 6.89776 5.06434 6.75 5.06434C6.60224 5.06434 6.45593 5.03523 6.31942 4.97868C6.18291 4.92213 6.05888 4.83924 5.95441 4.73474L4.76523 3.54556L4.7652 3.54553C4.73037 3.51069 4.68903 3.48306 4.64353 3.46421C4.59802 3.44536 4.54925 3.43566 4.5 3.43566C4.45075 3.43566 4.40198 3.44536 4.35647 3.46421C4.31097 3.48306 4.26963 3.51069 4.2348 3.54553L4.23477 3.54556L1.39017 6.39016C1.24372 6.53661 1.00628 6.53661 0.859835 6.39016C0.713388 6.24372 0.713388 6.00628 0.859835 5.85984L3.70441 3.01526C3.80888 2.91076 3.93291 2.82787 4.06942 2.77132C4.20593 2.71477 4.35224 2.68566 4.5 2.68566C4.64776 2.68566 4.79407 2.71477 4.93058 2.77132C5.06709 2.82787 5.19112 2.91076 5.29559 3.01526L6.48477 4.20444L6.4848 4.20447C6.51963 4.23931 6.56097 4.26694 6.60647 4.28579C6.65198 4.30464 6.70075 4.31434 6.75 4.31434C6.79925 4.31434 6.84802 4.30464 6.89353 4.28579C6.93903 4.26694 6.98037 4.23931 7.0152 4.20447L7.01523 4.20444L9.96967 1.25H8.25C8.04289 1.25 7.875 1.08211 7.875 0.875Z" fill="#099137"/>
</svg>
