<svg width="22" height="22" viewBox="0 0 22 22" fill="none" xmlns="http://www.w3.org/2000/svg">
<path d="M18.125 21.5H7.625C6.72989 21.5 5.87145 21.1444 5.23851 20.5115C4.60558 19.8785 4.25 19.0201 4.25 18.125V7.625C4.25 6.72989 4.60558 5.87145 5.23851 5.23851C5.87145 4.60558 6.72989 4.25 7.625 4.25H18.125C19.0201 4.25 19.8785 4.60558 20.5115 5.23851C21.1444 5.87145 21.5 6.72989 21.5 7.625V18.125C21.5 19.0201 21.1444 19.8785 20.5115 20.5115C19.8785 21.1444 19.0201 21.5 18.125 21.5Z" fill="#6487BF"/>
<path d="M6.5 2.75H17.5569C17.3235 2.09246 16.8924 1.52322 16.3228 1.12038C15.7531 0.717547 15.0727 0.500842 14.375 0.5H3.875C2.97989 0.5 2.12145 0.855579 1.48851 1.48851C0.855579 2.12145 0.5 2.97989 0.5 3.875V14.375C0.500842 15.0727 0.717547 15.7531 1.12038 16.3228C1.52322 16.8924 2.09246 17.3235 2.75 17.5569V6.5C2.75 5.50544 3.14509 4.55161 3.84835 3.84835C4.55161 3.14509 5.50544 2.75 6.5 2.75Z" fill="#6487BF"/>
</svg>
