<svg width="20" height="20" viewBox="0 0 20 20" fill="none" xmlns="http://www.w3.org/2000/svg">
<path d="M15.5461 3.19688C13.9698 1.93567 12.011 1.249 9.99222 1.25C7.61253 1.25 5.38987 2.1668 3.72815 3.83164C2.1223 5.44258 1.24222 7.56953 1.24925 9.81914C1.2493 11.4685 1.73351 13.0815 2.64183 14.4582L2.64925 14.4688C2.66019 14.4848 2.67151 14.5008 2.68284 14.5164C2.69417 14.532 2.70823 14.5523 2.71136 14.5574L2.71995 14.573C2.76409 14.6512 2.79808 14.7465 2.768 14.8426L2.04847 17.4465C2.01968 17.5433 2.00392 17.6435 2.00159 17.7445C2.00107 18.0102 2.10593 18.2653 2.29317 18.4537C2.4804 18.6422 2.73475 18.7488 3.00042 18.75C3.14081 18.7454 3.27916 18.715 3.40862 18.6605L6.04495 17.709L6.07815 17.6961C6.14987 17.666 6.22694 17.6507 6.30472 17.6512C6.37643 17.6514 6.44751 17.6646 6.51448 17.6902C6.57776 17.7148 7.15237 17.9348 7.75862 18.1043C8.26253 18.2449 9.31097 18.4559 10.1325 18.4559C12.4625 18.4559 14.6383 17.5535 16.2586 15.9145C17.8649 14.2879 18.7492 12.1258 18.7492 9.82383C18.7495 9.23293 18.6869 8.64369 18.5625 8.06602C18.1586 6.1668 17.0875 4.43711 15.5461 3.19688ZM6.24925 11.25C6.00202 11.25 5.76035 11.1767 5.55479 11.0393C5.34922 10.902 5.18901 10.7068 5.0944 10.4784C4.99979 10.2499 4.97503 9.99861 5.02327 9.75614C5.0715 9.51366 5.19055 9.29093 5.36536 9.11612C5.54018 8.9413 5.76291 8.82225 6.00538 8.77402C6.24786 8.72579 6.49919 8.75054 6.7276 8.84515C6.95601 8.93976 7.15123 9.09998 7.28858 9.30554C7.42594 9.5111 7.49925 9.75277 7.49925 10C7.49925 10.3315 7.36755 10.6495 7.13313 10.8839C6.89871 11.1183 6.58077 11.25 6.24925 11.25ZM9.99925 11.25C9.75202 11.25 9.51035 11.1767 9.30478 11.0393C9.09922 10.902 8.93901 10.7068 8.8444 10.4784C8.74979 10.2499 8.72503 9.99861 8.77327 9.75614C8.8215 9.51366 8.94055 9.29093 9.11536 9.11612C9.29018 8.9413 9.51291 8.82225 9.75538 8.77402C9.99786 8.72579 10.2492 8.75054 10.4776 8.84515C10.706 8.93976 10.9012 9.09998 11.0386 9.30554C11.1759 9.5111 11.2492 9.75277 11.2492 10C11.2492 10.3315 11.1176 10.6495 10.8831 10.8839C10.6487 11.1183 10.3308 11.25 9.99925 11.25ZM13.7492 11.25C13.502 11.25 13.2603 11.1767 13.0548 11.0393C12.8492 10.902 12.689 10.7068 12.5944 10.4784C12.4998 10.2499 12.475 9.99861 12.5233 9.75614C12.5715 9.51366 12.6905 9.29093 12.8654 9.11612C13.0402 8.9413 13.2629 8.82225 13.5054 8.77402C13.7479 8.72579 13.9992 8.75054 14.2276 8.84515C14.456 8.93976 14.6512 9.09998 14.7886 9.30554C14.9259 9.5111 14.9992 9.75277 14.9992 10C14.9992 10.3315 14.8676 10.6495 14.6331 10.8839C14.3987 11.1183 14.0808 11.25 13.7492 11.25Z" fill="white"/>
</svg>
