<svg width="20" height="20" viewBox="0 0 20 20" fill="none" xmlns="http://www.w3.org/2000/svg">
<path d="M11.6559 9.6875C11.6866 9.68753 11.7167 9.67846 11.7424 9.66144C11.768 9.64442 11.7881 9.6202 11.8 9.59183C11.812 9.56345 11.8152 9.53219 11.8095 9.50195C11.8037 9.47171 11.7891 9.44386 11.7676 9.42188L8.70508 6.30781C8.68332 6.28571 8.65547 6.27059 8.62508 6.26437C8.59469 6.25815 8.56314 6.26112 8.53445 6.27289C8.50575 6.28466 8.48121 6.30471 8.46395 6.33047C8.44668 6.35624 8.43747 6.38656 8.4375 6.41758V9.21875C8.4375 9.34307 8.48689 9.4623 8.57479 9.55021C8.6627 9.63811 8.78193 9.6875 8.90625 9.6875H11.6559Z" fill="white"/>
<path d="M7.69531 10.4297C7.53487 10.2714 7.40738 10.0829 7.32022 9.87504C7.23306 9.66719 7.18795 9.44413 7.1875 9.21875V5.625H4.375C3.71256 5.62696 3.07781 5.89098 2.6094 6.3594C2.14098 6.82781 1.87696 7.46256 1.875 8.125V16.875C1.875 17.538 2.13839 18.1739 2.60723 18.6428C3.07607 19.1116 3.71196 19.375 4.375 19.375H10C10.663 19.375 11.2989 19.1116 11.7678 18.6428C12.2366 18.1739 12.5 17.538 12.5 16.875V10.9375H8.90625C8.68085 10.9372 8.45775 10.8921 8.24989 10.805C8.04202 10.7178 7.85352 10.5902 7.69531 10.4297Z" fill="white"/>
<path d="M14.5312 4.6875H17.2809C17.3116 4.68753 17.3417 4.67846 17.3674 4.66144C17.393 4.64442 17.4131 4.6202 17.425 4.59183C17.437 4.56345 17.4402 4.53219 17.4345 4.50195C17.4287 4.47171 17.4141 4.44386 17.3926 4.42188L14.3301 1.30781C14.3083 1.28571 14.2805 1.27059 14.2501 1.26437C14.2197 1.25815 14.1881 1.26112 14.1594 1.27289C14.1308 1.28466 14.1062 1.30471 14.0889 1.33047C14.0717 1.35624 14.0625 1.38656 14.0625 1.41758V4.21875C14.0625 4.34307 14.1119 4.4623 14.1998 4.55021C14.2877 4.63811 14.4069 4.6875 14.5312 4.6875Z" fill="white"/>
<path d="M14.5312 5.9375C14.0765 5.93403 13.6413 5.75183 13.3197 5.43025C12.9982 5.10867 12.816 4.67352 12.8125 4.21875V0.625H8.59375C7.97237 0.625724 7.37665 0.872886 6.93727 1.31227C6.49789 1.75165 6.25072 2.34737 6.25 2.96875V4.375H7.89531C8.10532 4.37584 8.31309 4.41817 8.50669 4.49955C8.70029 4.58093 8.8759 4.69976 9.02344 4.84922L13.2875 9.18516C13.585 9.48699 13.7511 9.89418 13.7496 10.318V15.625H15.8219C17.0918 15.625 18.1246 14.5734 18.1246 13.2812V5.9375H14.5312Z" fill="white"/>
</svg>
