<svg width="20" height="20" viewBox="0 0 20 20" fill="none" xmlns="http://www.w3.org/2000/svg">
<path fill-rule="evenodd" clip-rule="evenodd" d="M6.07749 4.06178H16.2305C16.3765 4.06172 16.5223 4.07098 16.6672 4.08952C16.6181 3.7449 16.4997 3.41379 16.3192 3.11616C16.1387 2.81852 15.8998 2.56053 15.6168 2.35772C15.3339 2.15492 15.0129 2.01152 14.673 1.93615C14.3332 1.86078 13.9816 1.85502 13.6394 1.91921L3.76473 3.60508C3.62963 3.62578 3.49305 3.64877 3.3563 3.67428H3.34765C3.2873 3.68582 3.22758 3.69948 3.16858 3.71519C1.68446 4.08868 1.25 5.43438 1.25 6.24931V7.1899C1.23717 7.292 1.23058 7.39532 1.23047 7.49931V14.9993C1.23119 15.6621 1.49482 16.2976 1.9635 16.7663C2.43219 17.235 3.06765 17.4986 3.73047 17.4993H16.2305C16.8933 17.4986 17.5288 17.235 17.9974 16.7663C18.4661 16.2976 18.7297 15.6621 18.7305 14.9993V7.49931C18.7297 6.83649 18.4661 6.20103 17.9974 5.73235C17.5288 5.26366 16.8933 5.00004 16.2305 4.99931H6.25C5.58866 4.99931 5.51619 4.1978 6.07749 4.06178ZM14.375 12.4993C14.1278 12.4993 13.8861 12.426 13.6805 12.2887C13.475 12.1513 13.3148 11.9561 13.2201 11.7277C13.1255 11.4993 13.1008 11.2479 13.149 11.0055C13.1973 10.763 13.3163 10.5402 13.4911 10.3654C13.6659 10.1906 13.8887 10.0716 14.1311 10.0233C14.3736 9.9751 14.6249 9.99986 14.8534 10.0945C15.0818 10.1891 15.277 10.3493 15.4143 10.5548C15.5517 10.7604 15.625 11.0021 15.625 11.2493C15.625 11.5808 15.4933 11.8988 15.2589 12.1332C15.0245 12.3676 14.7065 12.4993 14.375 12.4993Z" fill="white"/>
</svg>
