<svg width="48" height="48" viewBox="0 0 48 48" fill="none" xmlns="http://www.w3.org/2000/svg">
<rect width="48" height="48" rx="8" fill="#E8EDF6"/>
<path d="M18.75 33.75C18.5511 33.75 18.3603 33.671 18.2197 33.5303C18.079 33.3897 18 33.1989 18 33V30H16.875C15.9802 29.999 15.1223 29.6431 14.4896 29.0104C13.8569 28.3777 13.501 27.5198 13.5 26.625V17.625C13.501 16.7302 13.8569 15.8723 14.4896 15.2396C15.1223 14.6069 15.9802 14.251 16.875 14.25H31.125C32.0198 14.251 32.8777 14.6069 33.5104 15.2396C34.1431 15.8723 34.499 16.7302 34.5 17.625V26.625C34.499 27.5198 34.1431 28.3777 33.5104 29.0104C32.8777 29.6431 32.0198 29.999 31.125 30H23.5191L19.2305 33.5761C19.0955 33.6883 18.9255 33.7499 18.75 33.75Z" fill="#164592"/>
</svg>
