<svg width="20" height="20" viewBox="0 0 20 20" fill="none" xmlns="http://www.w3.org/2000/svg">
<path d="M18.8992 1.26783C18.7513 1.23266 18.5957 1.25164 18.4605 1.32135L17.5 1.80103L16.5312 1.31666C16.4445 1.27327 16.3488 1.25068 16.2518 1.25068C16.1547 1.25068 16.059 1.27327 15.9723 1.31666L14.9914 1.80142L14.0234 1.31666C13.9364 1.27295 13.8404 1.25019 13.743 1.25019C13.6456 1.25019 13.5495 1.27295 13.4625 1.31666L12.5 1.79986L11.5449 1.31783C11.4581 1.27383 11.3622 1.2507 11.2649 1.25029C11.1676 1.24989 11.0715 1.27221 10.9844 1.31549L10 1.80182L9.03125 1.31627C8.94432 1.2729 8.84851 1.25033 8.75137 1.25033C8.65422 1.25033 8.55841 1.2729 8.47148 1.31627L7.5 1.80103L6.52969 1.31627C6.4046 1.25356 6.26209 1.23465 6.12497 1.26255C5.98786 1.29046 5.86407 1.36357 5.77344 1.47017C5.67575 1.5866 5.62308 1.73422 5.625 1.88619V11.2503L5.62695 11.2522H13.125C13.4565 11.2522 13.7745 11.3839 14.0089 11.6183C14.2433 11.8527 14.375 12.1707 14.375 12.5022V16.5628C14.375 17.771 15.6668 18.7503 16.875 18.7503H17.3438C17.8825 18.7503 18.3991 18.5362 18.7801 18.1553C19.161 17.7744 19.375 17.2577 19.375 16.719V1.87525C19.3751 1.73537 19.3283 1.59949 19.242 1.48936C19.1558 1.37923 19.0351 1.30123 18.8992 1.26783ZM16.25 9.37525H11.2695C10.932 9.37525 10.6406 9.11588 10.6258 8.77838C10.622 8.69403 10.6353 8.60979 10.665 8.53074C10.6946 8.45168 10.74 8.37946 10.7983 8.31842C10.8567 8.25738 10.9268 8.2088 11.0044 8.1756C11.082 8.1424 11.1656 8.12527 11.25 8.12525H16.2305C16.568 8.12525 16.8594 8.38463 16.8742 8.72213C16.878 8.80647 16.8647 8.89071 16.835 8.96977C16.8054 9.04882 16.76 9.12104 16.7017 9.18208C16.6433 9.24312 16.5732 9.29171 16.4956 9.32491C16.418 9.35811 16.3344 9.37523 16.25 9.37525ZM16.25 6.25025H8.76953C8.43203 6.25025 8.14062 5.99088 8.12578 5.65338C8.12198 5.56903 8.13531 5.48479 8.16497 5.40574C8.19462 5.32668 8.23998 5.25446 8.29832 5.19342C8.35666 5.13238 8.42676 5.0838 8.50439 5.0506C8.58202 5.0174 8.66557 5.00027 8.75 5.00025H16.2305C16.568 5.00025 16.8594 5.25963 16.8742 5.59713C16.878 5.68147 16.8647 5.76571 16.835 5.84477C16.8054 5.92382 16.76 5.99605 16.7017 6.05708C16.6433 6.11812 16.5732 6.16671 16.4956 6.19991C16.418 6.23311 16.3344 6.25023 16.25 6.25025Z" fill="white"/>
<path d="M13.125 16.5628V13.1253C13.125 12.9595 13.0592 12.8005 12.9419 12.6833C12.8247 12.5661 12.6658 12.5003 12.5 12.5003H1.875C1.54346 12.5013 1.22582 12.6336 0.991567 12.8682C0.757314 13.1028 0.625515 13.4207 0.625 13.7522C0.625 15.7268 0.850781 16.5479 1.18984 17.1729C1.76523 18.2342 2.80703 18.7503 4.375 18.7503H13.9719C14.0027 18.7503 14.0328 18.7412 14.0585 18.7241C14.0842 18.707 14.1042 18.6828 14.1161 18.6543C14.128 18.6259 14.1313 18.5946 14.1254 18.5643C14.1195 18.534 14.1049 18.5062 14.0832 18.4842C13.7137 18.1135 13.125 17.6174 13.125 16.5628Z" fill="white"/>
</svg>
