<svg width="20" height="20" viewBox="0 0 20 20" fill="none" xmlns="http://www.w3.org/2000/svg">
<path d="M18.125 13.75H12.5C12.3342 13.75 12.1753 13.8158 12.0581 13.9331C11.9408 14.0503 11.875 14.2092 11.875 14.375C11.875 14.8723 11.6775 15.3492 11.3258 15.7008C10.9742 16.0525 10.4973 16.25 10 16.25C9.50272 16.25 9.02581 16.0525 8.67417 15.7008C8.32254 15.3492 8.125 14.8723 8.125 14.375C8.125 14.2092 8.05915 14.0503 7.94194 13.9331C7.82473 13.8158 7.66576 13.75 7.5 13.75H1.875C1.70924 13.75 1.55027 13.8158 1.43306 13.9331C1.31585 14.0503 1.25 14.2092 1.25 14.375V16.875C1.25072 17.5378 1.51435 18.1733 1.98303 18.642C2.45172 19.1107 3.08718 19.3743 3.75 19.375H16.25C16.9128 19.3743 17.5483 19.1107 18.017 18.642C18.4857 18.1733 18.7493 17.5378 18.75 16.875V14.375C18.75 14.2092 18.6842 14.0503 18.5669 13.9331C18.4497 13.8158 18.2908 13.75 18.125 13.75Z" fill="white"/>
<path d="M18.7289 7.33906L17.4848 2.67383C17.2371 1.39023 16.3102 0.625 15 0.625H5C4.34375 0.625 3.78906 0.808203 3.35547 1.16953C2.92188 1.53086 2.64297 2.03125 2.51563 2.67188L1.27109 7.33906C1.25705 7.39155 1.24996 7.44566 1.25 7.5V9.375C1.25 10.7535 2.37148 12.5 3.75 12.5H16.25C17.6285 12.5 18.75 10.7535 18.75 9.375V7.5C18.75 7.44566 18.7429 7.39155 18.7289 7.33906ZM17.2098 6.875H12.5C12.3352 6.87417 12.1768 6.93878 12.0596 7.05465C11.9424 7.17052 11.876 7.32817 11.875 7.49297C11.875 7.99025 11.6775 8.46716 11.3258 8.81879C10.9742 9.17042 10.4973 9.36797 10 9.36797C9.50272 9.36797 9.02581 9.17042 8.67417 8.81879C8.32254 8.46716 8.125 7.99025 8.125 7.49297C8.12397 7.32817 8.05756 7.17052 7.94037 7.05465C7.82319 6.93878 7.6648 6.87417 7.5 6.875H2.79023C2.77825 6.87499 2.76642 6.87223 2.75567 6.86692C2.74493 6.86161 2.73555 6.85389 2.72826 6.84438C2.72097 6.83486 2.71597 6.82379 2.71364 6.81203C2.71132 6.80027 2.71173 6.78814 2.71484 6.77656L3.73867 2.92969C3.87734 2.21055 4.27813 1.875 5 1.875H15C15.7262 1.875 16.1266 2.2082 16.2598 2.92383L17.2852 6.77656C17.2883 6.78814 17.2887 6.80027 17.2864 6.81203C17.284 6.82379 17.279 6.83486 17.2717 6.84438C17.2645 6.85389 17.2551 6.86161 17.2443 6.86692C17.2336 6.87223 17.2218 6.87499 17.2098 6.875Z" fill="white"/>
</svg>
