<svg width="20" height="20" viewBox="0 0 20 20" fill="none" xmlns="http://www.w3.org/2000/svg">
<path d="M18.4648 7.40234C17.9469 7.07305 17.2996 6.83359 16.5867 6.70195C16.4666 6.67895 16.3558 6.6212 16.2682 6.53586C16.1806 6.45053 16.1199 6.34135 16.0938 6.22187C15.7867 4.87383 15.1328 3.7168 14.1738 2.83984C13.0527 1.81445 11.5707 1.25 10 1.25C8.61914 1.25 7.34375 1.68281 6.31367 2.5C5.61797 3.05467 5.0576 3.76038 4.675 4.56367C4.63244 4.65425 4.56881 4.73333 4.48944 4.79429C4.41006 4.85524 4.31725 4.89631 4.21875 4.91406C3.15898 5.10547 2.24492 5.4875 1.54648 6.03516C0.535156 6.8293 0 7.95156 0 9.28125C0 11.9141 2.18477 13.75 5.3125 13.75H9.375V8.76758C9.375 8.43125 9.63359 8.14258 9.96992 8.12578C10.0544 8.12171 10.1389 8.13484 10.2182 8.16437C10.2974 8.1939 10.3699 8.23922 10.4312 8.29759C10.4924 8.35595 10.5412 8.42614 10.5745 8.50391C10.6078 8.58167 10.625 8.6654 10.625 8.75V13.75H15.4688C18.3063 13.75 20 12.4125 20 10.1719C20 8.99805 19.4691 8.04023 18.4648 7.40234Z" fill="white"/>
<path d="M9.375 16.618L7.94141 15.1867C7.82351 15.0725 7.66538 15.0092 7.5012 15.0106C7.33703 15.0119 7.17998 15.0779 7.06402 15.1941C6.94805 15.3103 6.88247 15.4675 6.88146 15.6317C6.88045 15.7958 6.94407 15.9538 7.05859 16.0715L9.55859 18.5672C9.67576 18.6841 9.8345 18.7497 10 18.7497C10.1655 18.7497 10.3242 18.6841 10.4414 18.5672L12.9414 16.0715C13.0559 15.9538 13.1196 15.7958 13.1185 15.6317C13.1175 15.4675 13.0519 15.3103 12.936 15.1941C12.82 15.0779 12.663 15.0119 12.4988 15.0106C12.3346 15.0092 12.1765 15.0725 12.0586 15.1867L10.625 16.618V13.75H9.375V16.618Z" fill="white"/>
</svg>
