<svg width="20" height="20" viewBox="0 0 20 20" fill="none" xmlns="http://www.w3.org/2000/svg">
<path d="M13.1242 10C12.321 10 11.5445 9.64141 10.9367 8.99063C10.3456 8.35586 9.98471 7.50938 9.92104 6.60781C9.85307 5.64609 10.1464 4.76172 10.7468 4.11719C11.3472 3.47266 12.1867 3.125 13.1242 3.125C14.055 3.125 14.8968 3.47891 15.4953 4.12187C16.0996 4.77109 16.3937 5.65391 16.3257 6.60742C16.2605 7.51016 15.8999 8.35625 15.3101 8.99023C14.7038 9.64141 13.9277 10 13.1242 10Z" fill="white"/>
<path d="M18.2738 16.875H7.97494C7.80936 16.8759 7.64578 16.8388 7.4968 16.7665C7.34781 16.6943 7.21739 16.5888 7.11557 16.4582C7.00756 16.3166 6.93297 16.1525 6.89739 15.978C6.86181 15.8036 6.86615 15.6233 6.9101 15.4508C7.23901 14.1301 8.05385 13.0348 9.26635 12.2836C10.3425 11.6172 11.7124 11.25 13.1242 11.25C14.5636 11.25 15.8976 11.6016 16.98 12.2676C18.1953 13.0148 19.0113 14.1164 19.3386 15.4531C19.382 15.6258 19.3859 15.806 19.3499 15.9804C19.3139 16.1548 19.239 16.3188 19.1308 16.4602C19.0291 16.5901 18.899 16.6951 18.7504 16.767C18.6019 16.8389 18.4388 16.8758 18.2738 16.875Z" fill="white"/>
<path d="M5.74135 10.1562C4.36674 10.1562 3.15815 8.87813 3.04604 7.30742C2.99057 6.50273 3.24135 5.75859 3.74916 5.21289C4.25151 4.67266 4.9601 4.375 5.74135 4.375C6.5226 4.375 7.22572 4.67422 7.7308 5.21758C8.24252 5.76758 8.49252 6.51016 8.43393 7.3082C8.32182 8.87852 7.11361 10.1562 5.74135 10.1562Z" fill="white"/>
<path d="M8.30619 11.3848C7.61908 11.0488 6.72729 10.8809 5.74174 10.8809C4.59096 10.8809 3.47338 11.1809 2.59447 11.7254C1.59799 12.3438 0.927678 13.2441 0.656975 14.3313C0.617359 14.4876 0.613613 14.6509 0.646014 14.8089C0.678416 14.9669 0.746127 15.1156 0.844084 15.2437C0.937032 15.3631 1.05611 15.4595 1.19216 15.5256C1.3282 15.5917 1.4776 15.6257 1.62885 15.625H5.96479C6.03797 15.625 6.10883 15.5993 6.16501 15.5524C6.22119 15.5055 6.25913 15.4404 6.27221 15.3684C6.2765 15.3438 6.28197 15.3191 6.28822 15.2949C6.61947 13.9645 7.39565 12.8402 8.54252 12.0207C8.5847 11.9903 8.61863 11.9498 8.64123 11.903C8.66383 11.8562 8.67439 11.8045 8.67194 11.7525C8.6695 11.7006 8.65413 11.6501 8.62723 11.6056C8.60034 11.5611 8.56276 11.524 8.51791 11.4977C8.45658 11.4617 8.38627 11.4238 8.30619 11.3848Z" fill="white"/>
</svg>
