<svg width="48" height="48" viewBox="0 0 48 48" fill="none" xmlns="http://www.w3.org/2000/svg">
<rect width="48" height="48" rx="8" fill="#E8EDF6"/>
<path d="M27.7492 24C26.7855 24 25.8536 23.5697 25.1242 22.7888C24.415 22.027 23.9819 21.0113 23.9055 19.9294C23.8239 18.7753 24.1759 17.7141 24.8964 16.9406C25.6169 16.1672 26.6242 15.75 27.7492 15.75C28.8662 15.75 29.8764 16.1747 30.5945 16.9462C31.3197 17.7253 31.6727 18.7847 31.5911 19.9289C31.5128 21.0122 31.0802 22.0275 30.3723 22.7883C29.6448 23.5697 28.7134 24 27.7492 24Z" fill="#164592"/>
<path d="M33.9287 32.25H21.5702C21.3715 32.2511 21.1752 32.2065 20.9964 32.1198C20.8176 32.0331 20.6611 31.9065 20.5389 31.7498C20.4093 31.58 20.3198 31.383 20.2771 31.1736C20.2344 30.9643 20.2396 30.748 20.2923 30.5409C20.687 28.9561 21.6648 27.6417 23.1198 26.7403C24.4112 25.9406 26.0552 25.5 27.7492 25.5C29.4766 25.5 31.0773 25.9219 32.3762 26.7211C33.8345 27.6178 34.8137 28.9397 35.2066 30.5438C35.2587 30.751 35.2633 30.9673 35.2201 31.1765C35.1769 31.3857 35.087 31.5825 34.9572 31.7522C34.8351 31.9082 34.679 32.0341 34.5007 32.1204C34.3224 32.2067 34.1268 32.251 33.9287 32.25Z" fill="#164592"/>
<path d="M18.8898 24.1875C17.2403 24.1875 15.79 22.6538 15.6555 20.7689C15.5889 19.8033 15.8898 18.9103 16.4992 18.2555C17.102 17.6072 17.9523 17.25 18.8898 17.25C19.8273 17.25 20.6711 17.6091 21.2772 18.2611C21.8912 18.9211 22.1912 19.8122 22.1209 20.7698C21.9864 22.6542 20.5366 24.1875 18.8898 24.1875Z" fill="#164592"/>
<path d="M21.9677 25.6617C21.1431 25.2586 20.073 25.057 18.8903 25.057C17.5094 25.057 16.1683 25.417 15.1136 26.0705C13.9178 26.8125 13.1134 27.893 12.7886 29.1975C12.7411 29.3851 12.7366 29.5811 12.7754 29.7707C12.8143 29.9603 12.8956 30.1387 13.0131 30.2925C13.1247 30.4357 13.2676 30.5514 13.4308 30.6307C13.5941 30.71 13.7733 30.7508 13.9548 30.75H19.158C19.2458 30.75 19.3308 30.7192 19.3982 30.6629C19.4656 30.6066 19.5112 30.5284 19.5269 30.442C19.532 30.4125 19.5386 30.383 19.5461 30.3539C19.9436 28.7573 20.875 27.4083 22.2512 26.4248C22.3019 26.3884 22.3426 26.3398 22.3697 26.2836C22.3968 26.2274 22.4095 26.1653 22.4066 26.103C22.4036 26.0407 22.3852 25.9801 22.3529 25.9267C22.3206 25.8733 22.2755 25.8288 22.2217 25.7972C22.1481 25.7541 22.0637 25.7086 21.9677 25.6617Z" fill="#164592"/>
</svg>
