<svg width="20" height="20" viewBox="0 0 20 20" fill="none" xmlns="http://www.w3.org/2000/svg">
<path d="M2.47143 7.89062C2.36603 7.89158 2.26226 7.86462 2.17065 7.8125C2.10345 7.77473 2.04447 7.72394 1.99714 7.6631C1.94981 7.60226 1.91509 7.53259 1.89501 7.45817C1.87493 7.38375 1.8699 7.30607 1.8802 7.22968C1.89051 7.15329 1.91594 7.07972 1.95502 7.01328C2.70815 5.75625 4.99955 2.82227 9.99955 2.82227C12.1663 2.82227 14.0667 3.39141 15.6453 4.51328C16.9445 5.43398 17.6726 6.47617 18.0195 6.97812C18.0635 7.04139 18.0944 7.11283 18.1103 7.18822C18.1263 7.26361 18.127 7.34143 18.1125 7.4171C18.0979 7.49278 18.0684 7.56477 18.0256 7.62885C17.9827 7.69294 17.9276 7.74781 17.8632 7.79023C17.7317 7.87714 17.5716 7.90944 17.4167 7.88027C17.2618 7.8511 17.1244 7.76276 17.0335 7.63398C16.4058 6.73125 14.4917 3.98437 9.99955 3.98437C5.61479 3.98437 3.63236 6.51211 2.98666 7.59609C2.93478 7.68661 2.85967 7.76164 2.76909 7.81342C2.67851 7.86519 2.57575 7.89185 2.47143 7.89062Z" fill="white"/>
<path d="M12.5187 19.375C12.4688 19.3756 12.4191 19.3699 12.3706 19.3582C8.74369 18.4598 7.3894 14.834 7.33432 14.6832L7.32572 14.65C7.29604 14.5453 6.5683 12.059 7.68549 10.6027C8.1976 9.93867 8.97651 9.59805 10.005 9.59805C10.9613 9.59805 11.6511 9.89531 12.1253 10.5105C12.516 11.0129 12.6722 11.6324 12.8234 12.2293C13.141 13.4723 13.3703 14.125 14.6902 14.1922C15.2699 14.2215 15.6507 13.8824 15.8667 13.5937C16.4507 12.8066 16.5523 11.5234 16.1121 10.3906C15.5464 8.92851 13.539 6.17187 9.99955 6.17187C8.48862 6.17187 7.10033 6.65742 5.98705 7.56992C5.06557 8.32578 4.33549 9.39297 3.98393 10.4898C3.33197 12.532 4.18705 15.7422 4.19526 15.7715C4.21522 15.8462 4.22002 15.9241 4.20938 16.0007C4.19874 16.0773 4.17287 16.151 4.1333 16.2175C4.09373 16.2839 4.04125 16.3418 3.97897 16.3876C3.91668 16.4334 3.84585 16.4663 3.77065 16.4844C3.61872 16.5248 3.45701 16.5041 3.32017 16.4267C3.18334 16.3493 3.08226 16.2213 3.03861 16.0703C2.99955 15.9238 2.08627 12.5 2.8394 10.1398C3.65971 7.58242 6.19135 5.0043 10.0007 5.0043C11.7613 5.0043 13.4246 5.60273 14.8128 6.73281C15.8878 7.61172 16.766 8.79219 17.2253 9.97226C17.8093 11.4789 17.6527 13.1699 16.8273 14.2746C16.2773 15.0113 15.4941 15.3965 14.6265 15.3547C12.3664 15.2414 11.9601 13.6637 11.664 12.5129C11.3593 11.3324 11.1644 10.7633 10.0007 10.7633C9.36166 10.7633 8.91283 10.9391 8.63354 11.3031C8.25268 11.8012 8.22299 12.5797 8.26518 13.1445C8.29287 13.5381 8.35961 13.9279 8.4644 14.3082C8.55736 14.5426 9.76791 17.5113 12.6671 18.2297C12.7421 18.2474 12.8127 18.2799 12.875 18.3252C12.9373 18.3705 12.9899 18.4277 13.0299 18.4935C13.0699 18.5594 13.0964 18.6325 13.1079 18.7086C13.1194 18.7848 13.1156 18.8624 13.0968 18.9371C13.0614 19.0632 12.9858 19.1742 12.8814 19.2533C12.777 19.3323 12.6496 19.3751 12.5187 19.375Z" fill="white"/>
<path d="M7.86322 19.107C7.78193 19.1072 7.70144 19.091 7.62654 19.0594C7.55164 19.0278 7.48388 18.9814 7.42729 18.923C5.97572 17.3996 5.15463 15.6961 4.84565 13.566V13.5547C4.67221 12.1445 4.92611 10.148 6.17026 8.77539C7.08861 7.7625 8.37963 7.24766 10.0007 7.24766C11.9179 7.24766 13.4246 8.13906 14.364 9.82148C15.0456 11.0437 15.1808 12.2617 15.1843 12.3117C15.1915 12.3888 15.1833 12.4666 15.1604 12.5405C15.1374 12.6144 15.1001 12.6831 15.0506 12.7426C15.0011 12.8022 14.9403 12.8513 14.8718 12.8873C14.8032 12.9233 14.7282 12.9454 14.6511 12.9523C14.4955 12.9692 14.3395 12.9242 14.2168 12.8271C14.0941 12.73 14.0145 12.5885 13.9953 12.4332C13.8924 11.7024 13.6559 10.9968 13.2976 10.3516C12.5695 9.0668 11.4617 8.41367 9.99643 8.41367C8.7308 8.41367 7.74057 8.79453 7.05932 9.54648C6.07729 10.6305 5.88744 12.3004 6.02221 13.4051C6.29291 15.2887 7.01674 16.7871 8.29486 18.1262C8.34821 18.1817 8.38985 18.2473 8.41732 18.3192C8.44478 18.3911 8.45751 18.4678 8.45474 18.5448C8.45197 18.6217 8.43376 18.6973 8.4012 18.767C8.36863 18.8368 8.32238 18.8993 8.26518 18.9508C8.15503 19.0506 8.01189 19.1063 7.86322 19.107Z" fill="white"/>
<path d="M14.5503 17.4289C13.2808 17.4289 12.2015 17.0773 11.3378 16.3785C9.60268 14.9805 9.40815 12.7035 9.39955 12.6074C9.38733 12.4497 9.43826 12.2936 9.54115 12.1734C9.64404 12.0532 9.79045 11.9788 9.94818 11.9666C10.1059 11.9544 10.262 12.0053 10.3822 12.1082C10.5024 12.2111 10.5768 12.3575 10.589 12.5152C10.5933 12.5488 10.7667 14.4113 12.1042 15.484C12.8956 16.116 13.9535 16.3668 15.257 16.2203C15.4128 16.2014 15.5697 16.245 15.6935 16.3414C15.8173 16.4379 15.8978 16.5795 15.9175 16.7352C15.9261 16.8121 15.9192 16.8899 15.8973 16.9641C15.8754 17.0384 15.839 17.1075 15.7901 17.1675C15.7413 17.2275 15.6809 17.2771 15.6127 17.3136C15.5444 17.35 15.4696 17.3725 15.3925 17.3797C15.113 17.4123 14.8318 17.4287 14.5503 17.4289Z" fill="white"/>
<path d="M15.5535 1.90586C15.0581 1.58359 13.3019 0.625 9.99955 0.625C6.53315 0.625 4.7726 1.68398 4.38315 1.95312C4.35742 1.96891 4.33335 1.98723 4.31127 2.00781C4.30894 2.01007 4.30591 2.01145 4.30268 2.01172C4.24049 2.06602 4.19059 2.13295 4.1563 2.20805C4.12202 2.28316 4.10413 2.36471 4.10385 2.44727C4.10492 2.52466 4.12125 2.60107 4.1519 2.67214C4.18256 2.74321 4.22693 2.80753 4.28249 2.86142C4.33805 2.9153 4.40369 2.9577 4.47566 2.98617C4.54763 3.01464 4.62451 3.02864 4.7019 3.02734C4.82593 3.02726 4.94697 2.98923 5.04877 2.91836C5.06557 2.90586 6.5808 1.79258 10.0007 1.79258C13.4206 1.79258 14.9441 2.90195 14.9605 2.91016C15.0645 2.98728 15.1908 3.02842 15.3203 3.02734C15.3977 3.02853 15.4746 3.01441 15.5466 2.9858C15.6186 2.95718 15.6842 2.91463 15.7397 2.86059C15.7952 2.80654 15.8395 2.74207 15.87 2.67088C15.9005 2.59968 15.9167 2.52316 15.9175 2.4457C15.9176 2.32968 15.8829 2.2163 15.818 2.12011C15.7532 2.02392 15.661 1.94931 15.5535 1.90586Z" fill="white"/>
</svg>
